<svg width="160" height="28" viewBox="0 0 160 28" fill="none" xmlns="http://www.w3.org/2000/svg">
<g clip-path="url(#clip0_163_359)">
<path d="M3.43549 -0.0444162C3.56009 -0.0449738 3.68469 -0.0455315 3.81307 -0.0461061C4.07592 -0.0467878 4.33878 -0.0466488 4.60163 -0.0457409C5.00198 -0.0448364 5.40216 -0.0478963 5.80249 -0.0512735C6.05863 -0.051445 6.31477 -0.0513834 6.57092 -0.0510657C6.68969 -0.0522609 6.80847 -0.0534561 6.93084 -0.0546875C9.07498 -0.0357349 10.4019 1.84186 11.8161 3.25197C11.9805 3.41552 12.1449 3.57905 12.3093 3.74256C12.7521 4.18301 13.1946 4.62379 13.637 5.06467C13.9138 5.34049 14.1907 5.61625 14.4676 5.89197C15.4346 6.85488 16.4013 7.81806 17.3678 8.7815C18.2675 9.67831 19.1677 10.5745 20.0683 11.4705C20.8433 12.2415 21.6178 13.013 22.3921 13.7849C22.8538 14.2451 23.3156 14.7051 23.7779 15.1648C24.2119 15.5964 24.6455 16.0285 25.0786 16.461C25.2374 16.6194 25.3964 16.7777 25.5556 16.9357C25.7732 17.1517 25.9901 17.3685 26.2069 17.5853C26.2697 17.6474 26.3324 17.7094 26.3971 17.7733C27.3879 18.7691 27.679 19.5789 27.6779 20.9734C27.6784 21.098 27.6788 21.2226 27.6793 21.351C27.6799 21.6141 27.68 21.8772 27.6795 22.1403C27.6792 22.5414 27.6817 22.9424 27.6844 23.3436C27.6846 23.5997 27.6847 23.8558 27.6846 24.112C27.6856 24.2313 27.6865 24.3505 27.6876 24.4734C27.6817 25.4724 27.5168 26.1795 26.7919 26.9189C25.9624 27.5522 25.2279 27.5901 24.2177 27.5893C24.0927 27.5897 23.9677 27.5902 23.8389 27.5907C23.5749 27.5913 23.311 27.5913 23.0471 27.5909C22.6446 27.5905 22.2423 27.593 21.8398 27.5957C21.5829 27.596 21.3259 27.596 21.0689 27.5959C20.9493 27.5969 20.8296 27.5979 20.7063 27.5989C18.6297 27.5867 17.5025 25.9747 16.1242 24.6032C15.9544 24.4346 15.7846 24.266 15.6147 24.0975C15.0608 23.5476 14.5075 22.9972 13.9542 22.4467C13.763 22.2566 13.5718 22.0665 13.3807 21.8764C12.5858 21.0859 11.7911 20.2953 10.9968 19.5043C10.7916 19.3 10.5863 19.0956 10.3811 18.8913C10.3301 18.8405 10.2791 18.7897 10.2266 18.7374C9.39871 17.9131 8.56993 17.0897 7.74077 16.2667C6.88743 15.4196 6.03491 14.5717 5.18314 13.7231C4.70569 13.2474 4.2279 12.7722 3.74923 12.2977C3.29955 11.852 2.85089 11.4052 2.403 10.9577C2.23866 10.7938 2.07396 10.6303 1.90886 10.4672C1.68324 10.2442 1.45898 10.0199 1.23501 9.79528C1.1697 9.73135 1.10439 9.66742 1.0371 9.60155C0.404283 8.96122 -0.0071156 8.24088 -0.0198837 7.32799C-0.0215982 7.21642 -0.0233127 7.10486 -0.0250792 6.98991C-0.0298431 6.47811 -0.03421 5.96632 -0.0366657 5.45449C-0.0384291 5.18528 -0.0413363 4.91607 -0.0454216 4.64689C-0.0512966 4.25756 -0.0536072 3.86835 -0.0551676 3.47899C-0.0575873 3.35981 -0.060007 3.24064 -0.0625 3.11785C-0.0601153 2.2249 0.12604 1.50489 0.746816 0.837135C1.57532 0.0529708 2.32912 -0.0473149 3.43549 -0.0444162Z" fill="black"/>
<path d="M38.666 1.87501C38.7561 1.87518 38.8462 1.87536 38.939 1.87553C39.6246 1.88897 40.1746 1.9933 40.7741 2.34048C40.8864 2.39973 40.9987 2.45897 41.1143 2.52002C41.9647 3.2169 42.4564 4.20855 42.9689 5.15987C43.0436 5.29697 43.1185 5.43401 43.1934 5.571C43.3079 5.78038 43.4223 5.9898 43.5365 6.19938C43.8952 6.85798 44.2617 7.51215 44.63 8.16545C44.7526 8.38322 44.8752 8.60099 44.9978 8.81876C45.0581 8.9258 45.1184 9.03285 45.1805 9.14313C45.4911 9.69473 45.801 10.2467 46.111 10.7987C46.2355 11.0203 46.3601 11.242 46.4846 11.4636C47.2317 12.7935 47.2317 12.7935 47.4186 13.1261C47.5429 13.3473 47.6671 13.5684 47.7914 13.7895C48.1072 14.3513 48.4226 14.9134 48.7373 15.4757C48.8014 15.5901 48.8654 15.7044 48.9314 15.8221C49.0505 16.0347 49.1695 16.2474 49.2883 16.4601C49.8546 17.4702 50.439 18.4678 51.0209 19.4696C51.0562 13.817 51.0914 8.16438 51.1277 2.34048C52.748 2.34048 54.3682 2.34048 56.0376 2.34048C56.0424 5.08076 56.0464 7.82103 56.0487 10.5613C56.0498 11.8337 56.0513 13.1061 56.0537 14.3786C56.0559 15.4878 56.0572 16.5971 56.0577 17.7064C56.058 18.2935 56.0586 18.8807 56.0602 19.4678C56.0616 20.021 56.0621 20.5742 56.0618 21.1274C56.0618 21.3299 56.0622 21.5323 56.0631 21.7348C56.0747 24.7519 56.0747 24.7519 54.9894 25.9637C54.1656 26.7449 53.3046 26.9784 52.1844 26.9599C51.0967 26.9145 50.162 26.5885 49.3786 25.813C48.8906 25.2817 48.5714 24.6801 48.2391 24.0445C48.1164 23.8143 47.9936 23.5842 47.8705 23.3542C47.8085 23.2381 47.7465 23.1219 47.6827 23.0023C47.4047 22.4874 47.1153 21.9791 46.8248 21.4711C46.2997 20.5506 45.7828 19.6259 45.2704 18.6983C45.1979 18.567 45.1254 18.4358 45.0529 18.3045C45.017 18.2395 44.9811 18.1744 44.944 18.1074C44.9081 18.0424 44.8722 17.9773 44.8352 17.9103C44.7992 17.8452 44.7633 17.7802 44.7262 17.7131C43.8377 16.1052 42.941 14.5018 42.0416 12.8999C41.9882 12.8046 41.9347 12.7093 41.8796 12.6112C41.2299 11.4553 40.5742 10.303 39.9202 9.14957C39.885 14.8724 39.8498 20.5952 39.8135 26.4915C38.2284 26.4915 36.6434 26.4915 35.0103 26.4915C35.0006 23.6661 34.9928 20.8408 34.9881 18.0154C34.9859 16.7035 34.9829 15.3917 34.9781 14.0798C34.9738 12.9362 34.971 11.7925 34.9701 10.6489C34.9695 10.0435 34.9682 9.43817 34.9651 8.83279C34.9622 8.26255 34.9613 7.69234 34.962 7.1221C34.9619 6.91324 34.961 6.70437 34.9594 6.49552C34.9487 5.06308 35.02 3.85055 36.0776 2.76605C36.8912 2.11089 37.6303 1.87297 38.666 1.87501Z" fill="black"/>
<path d="M78.1313 0.640625C79.7868 0.640625 81.4423 0.640625 83.148 0.640625C83.1832 3.58981 83.2184 6.539 83.2547 9.57756C83.7479 9.29669 84.241 9.01581 84.7491 8.72642C87.1271 7.88605 89.6041 8.04545 91.9047 9.08591C92.6124 9.45054 93.2227 9.90764 93.8218 10.4287C93.8874 10.484 93.953 10.5392 94.0206 10.5962C95.5237 11.9635 96.5007 14.2951 96.6158 16.2881C96.673 19.316 96.2866 21.7081 94.2487 24.0469C94.1453 24.166 94.1453 24.166 94.0398 24.2875C92.4302 26.0068 90.1198 26.9151 87.7905 27.0231C85.1442 27.0885 82.8973 26.2835 80.8902 24.5518C79.1982 22.9255 78.1976 20.6831 78.1182 18.3401C78.1183 18.2075 78.1184 18.0749 78.1185 17.9383C78.1184 17.8637 78.1183 17.7891 78.1182 17.7123C78.118 17.465 78.1186 17.2177 78.1192 16.9704C78.1192 16.792 78.1192 16.6137 78.1191 16.4354C78.1191 15.9532 78.1197 15.471 78.1205 14.9888C78.1212 14.4841 78.1212 13.9795 78.1213 13.4748C78.1217 12.5201 78.1225 11.5653 78.1236 10.6105C78.1248 9.52317 78.1254 8.43583 78.1259 7.3485C78.1271 5.11254 78.129 2.87658 78.1313 0.640625ZM84.2154 14.4716C83.2579 15.7269 82.9827 16.9652 83.148 18.5145C83.4324 19.836 84.2678 20.8988 85.3899 21.6335C86.4084 22.1893 87.5521 22.2473 88.6629 21.949C89.8003 21.5412 90.6733 20.7693 91.2004 19.6886C91.8252 18.2533 91.8077 17.0336 91.2605 15.5704C90.7646 14.469 89.9264 13.7338 88.8051 13.3013C87.1844 12.7189 85.3716 13.2129 84.2154 14.4716Z" fill="black"/>
<path d="M72.728 9.67878C72.8944 9.82079 73.059 9.96478 73.2217 10.111C73.2947 10.1739 73.3678 10.2369 73.4431 10.3018C74.9719 11.7059 75.5732 13.5663 75.9969 15.537C75.9969 16.5552 75.9969 17.5733 75.9969 18.6224C71.8405 18.6224 67.6841 18.6224 63.4018 18.6224C63.9363 20.0075 64.4419 21.2523 65.8167 21.9579C67.0793 22.4785 68.4164 22.5167 69.6993 22.0269C70.7357 21.5442 71.4253 20.9267 71.9408 19.8991C72.3914 19.9648 72.7361 20.1204 73.1383 20.3305C73.2002 20.3626 73.2622 20.3948 73.326 20.4279C73.5228 20.5303 73.7191 20.6336 73.9155 20.7369C74.0473 20.8055 74.1792 20.8741 74.3112 20.9426C74.8453 21.2211 75.3758 21.5003 75.8901 21.8141C75.5432 22.9567 74.7967 23.8461 73.9689 24.6867C73.8968 24.7612 73.8247 24.8357 73.7504 24.9124C71.9741 26.6197 69.646 26.9683 67.2756 26.9434C64.7343 26.8825 62.6802 25.7736 60.9064 24.0085C59.0388 22.043 58.5245 19.5137 58.5723 16.8881C58.6621 14.2003 59.8023 11.9165 61.7419 10.0757C64.7043 7.4848 69.5937 7.26203 72.728 9.67878ZM64.656 13.6951C64.0866 14.2932 63.7765 14.9463 63.6153 15.7498C66.0809 15.7498 68.5466 15.7498 71.0869 15.7498C70.827 14.5839 70.5033 13.8299 69.5159 13.1328C67.9324 12.1625 65.9923 12.4627 64.656 13.6951Z" fill="black"/>
<path d="M141.319 2.34375C147.483 2.34375 153.648 2.34375 159.998 2.34375C159.998 3.99389 159.998 5.64403 159.998 7.34418C157.779 7.34418 155.56 7.34418 153.274 7.34418C153.274 13.6639 153.274 19.9836 153.274 26.4948C151.583 26.4948 149.893 26.4948 148.151 26.4948C148.151 20.1751 148.151 13.8554 148.151 7.34418C145.896 7.34418 143.642 7.34418 141.319 7.34418C141.319 5.69404 141.319 4.0439 141.319 2.34375Z" fill="black"/>
<path d="M110.028 9.72798C110.179 9.85224 110.328 9.97851 110.475 10.107C110.573 10.192 110.573 10.192 110.674 10.2786C111.22 10.784 111.59 11.3872 111.969 12.0221C111.661 12.3543 111.353 12.5788 110.959 12.8038C110.847 12.8682 110.736 12.9326 110.62 12.9989C110.504 13.065 110.388 13.131 110.268 13.199C110.038 13.331 109.808 13.4631 109.578 13.5951C109.476 13.6531 109.375 13.7111 109.27 13.7709C109.076 13.8823 108.885 13.9981 108.697 14.1181C108.447 14.2563 108.447 14.2563 108.127 14.2563C108.07 14.1444 108.012 14.0325 107.953 13.9172C107.5 13.1396 106.835 12.8043 105.992 12.554C105.147 12.3784 104.47 12.4318 103.711 12.8665C103.413 13.0762 103.413 13.0762 103.217 13.4052C103.187 13.6375 103.187 13.6375 103.197 13.8839C103.198 14.0074 103.198 14.0074 103.199 14.1333C103.209 14.3822 103.209 14.3822 103.324 14.6819C103.572 14.8024 103.572 14.8024 103.857 14.8946C103.933 14.9281 104.008 14.9615 104.086 14.9959C104.814 15.3101 105.553 15.4745 106.328 15.6341C108.329 16.0498 110.298 16.5348 111.649 18.1928C112.198 19.0653 112.438 19.9633 112.43 20.9856C112.429 21.0642 112.428 21.1428 112.428 21.2238C112.402 22.3857 112.105 23.3034 111.436 24.2572C111.361 24.3647 111.286 24.4722 111.209 24.583C109.833 26.1195 107.774 26.8564 105.765 27.0034C103.339 27.1306 100.988 26.6237 99.1341 24.9819C98.5427 24.435 98.0213 23.8143 97.6665 23.0868C97.8086 22.662 98.071 22.5594 98.442 22.3483C98.5093 22.3091 98.5766 22.27 98.6459 22.2296C98.7885 22.1468 98.9314 22.0644 99.0745 21.9825C99.2925 21.8577 99.5096 21.7315 99.7266 21.605C99.8654 21.5247 100.004 21.4444 100.143 21.3642C100.208 21.3267 100.272 21.2893 100.339 21.2507C100.685 21.0531 101.028 20.8833 101.402 20.7462C101.51 20.8832 101.616 21.0207 101.723 21.1585C101.782 21.235 101.841 21.3115 101.903 21.3904C102.043 21.5974 102.043 21.5974 102.043 21.8101C102.102 21.8396 102.162 21.8691 102.223 21.8995C102.392 21.9842 102.561 22.0699 102.73 22.1563C102.82 22.2023 102.91 22.2482 103.003 22.2955C103.094 22.3418 103.184 22.388 103.277 22.4356C104.108 22.8166 105.236 22.7829 106.12 22.5848C106.625 22.3983 107.028 22.2021 107.273 21.7037C107.336 21.3695 107.364 21.0755 107.273 20.7462C106.913 20.303 106.596 20.1222 106.052 19.9616C105.946 19.9299 105.946 19.9299 105.838 19.8975C105.316 19.7475 104.789 19.6252 104.26 19.5057C104.191 19.4901 104.122 19.4745 104.051 19.4585C103.705 19.3805 103.36 19.3045 103.013 19.2314C101.343 18.8644 99.7553 18.2512 98.7339 16.8097C97.9773 15.5976 97.943 14.1256 98.1431 12.7431C98.5511 11.0708 99.5867 9.98606 101.015 9.09836C103.698 7.63026 107.594 7.90649 110.028 9.72798Z" fill="black"/>
<path d="M134.17 2.34375C135.861 2.34375 137.551 2.34375 139.293 2.34375C139.293 10.3136 139.293 18.2834 139.293 26.4948C137.603 26.4948 135.912 26.4948 134.17 26.4948C134.17 18.5249 134.17 10.5551 134.17 2.34375Z" fill="black"/>
<path d="M19.2412 -0.0165372C19.4449 -0.0185855 19.4449 -0.0185855 19.6526 -0.0206753C19.8007 -0.0215445 19.9487 -0.0223364 20.0967 -0.0230568C20.1717 -0.0234904 20.2466 -0.023924 20.3238 -0.0243708C20.7208 -0.0265869 21.1178 -0.0281097 21.5148 -0.0291089C21.9227 -0.0302834 22.3306 -0.0339411 22.7385 -0.0381705C23.054 -0.0409661 23.3694 -0.0418442 23.6849 -0.0422251C23.8352 -0.04274 23.9854 -0.0439677 24.1357 -0.0459528C25.1765 -0.058847 25.8876 0.0586325 26.7632 0.614049C27.4188 1.26746 27.654 1.89469 27.6644 2.80615C27.6661 2.94327 27.6678 3.08039 27.6696 3.22166C27.6708 3.37121 27.672 3.52077 27.673 3.67033C27.6736 3.74608 27.6741 3.82183 27.6747 3.89988C27.6776 4.30121 27.6796 4.70253 27.6812 5.10387C27.6826 5.4343 27.6856 5.76466 27.6899 6.09506C27.6952 6.49567 27.6979 6.89621 27.6986 7.29685C27.6993 7.44861 27.7009 7.60037 27.7035 7.75211C27.7199 8.77852 27.6449 9.63434 26.9244 10.418C26.1543 11.1404 25.4329 11.2356 24.3975 11.2092C22.9518 11.0742 21.8788 9.5943 20.9106 8.63294C20.8569 8.57971 20.8032 8.52648 20.7479 8.47164C20.4646 8.19087 20.1816 7.9098 19.8989 7.62847C19.6092 7.34029 19.3185 7.05312 19.0276 6.76616C18.8015 6.54279 18.5761 6.31871 18.351 6.09443C18.2441 5.98825 18.137 5.88235 18.0296 5.77672C17.1453 4.906 16.4264 4.19413 16.4097 2.90813C16.4192 1.98218 16.5863 1.38372 17.2177 0.697999C17.8233 0.144877 18.4392 -0.00950239 19.2412 -0.0165372Z" fill="#FF3E01"/>
<path d="M4.48236 16.8113C5.01304 17.2225 5.47742 17.7131 5.94917 18.1885C6.08772 18.3262 6.22637 18.4638 6.3651 18.6013C6.65446 18.8888 6.94264 19.1774 7.23002 19.4668C7.59678 19.836 7.96634 20.2023 8.33684 20.5678C8.62335 20.851 8.9083 21.1358 9.19282 21.421C9.32843 21.5566 9.46452 21.6918 9.6011 21.8264C10.4186 22.6343 11.0579 23.3054 11.2635 24.4748C11.2508 25.4752 10.9881 26.248 10.275 26.9642C9.38596 27.5773 8.55457 27.6205 7.49437 27.6134C7.34249 27.6137 7.19061 27.6141 7.03874 27.6146C6.72186 27.6152 6.40504 27.6143 6.08817 27.6123C5.68442 27.6099 5.28079 27.6113 4.87704 27.6139C4.56385 27.6154 4.25069 27.6149 3.93749 27.6138C3.78873 27.6135 3.63997 27.6139 3.49121 27.6149C2.50217 27.6201 1.74823 27.5365 0.931241 26.9605C0.876892 26.9049 0.822543 26.8494 0.766548 26.7922C0.710823 26.738 0.655098 26.6838 0.597685 26.628C-0.0210414 25.7562 -0.0645344 24.9285 -0.057335 23.8834C-0.0576233 23.7347 -0.0580383 23.5859 -0.0585728 23.4372C-0.0591989 23.1268 -0.0582983 22.8165 -0.0562926 22.5061C-0.0538625 22.111 -0.0552612 21.7161 -0.0578179 21.3211C-0.0593715 21.0143 -0.0588647 20.7075 -0.0577633 20.4007C-0.0574814 20.2552 -0.0578178 20.1097 -0.058822 19.9642C-0.0642221 18.9618 0.00939166 18.0892 0.644383 17.2771C1.79564 16.3052 3.12988 16.0337 4.48236 16.8113Z" fill="black"/>
<path d="M116.024 13.0859C120.216 13.0859 124.408 13.0859 128.726 13.0859C128.726 14.6308 128.726 16.1756 128.726 17.7672C124.535 17.7672 120.343 17.7672 116.024 17.7672C116.024 16.2224 116.024 14.6776 116.024 13.0859Z" fill="black"/>
</g>
<defs>
<clipPath id="clip0_163_359">
<rect width="160" height="27.5556" fill="white"/>
</clipPath>
</defs>
</svg>
